<svg xmlns="http://www.w3.org/2000/svg" width="301" height="301" viewBox="0 0 301 301" fill="none"><circle cx="150.5" cy="150.5" r="150" fill="url(#paint0_linear_23_123)" stroke="#EBB841"></circle><path d="M173.098 267.37L167.878 248.855L169.091 248.514L173.597 264.495L176.205 246.508L177.176 246.234L188.823 260.202L184.317 244.221L185.53 243.879L190.75 262.393L189.456 262.758L177.139 247.961L174.365 267.013L173.098 267.37Z" fill="white"></path><path d="M163.897 267.579L163.193 259.405L155.382 260.078L155.291 259.018L163.102 258.345L162.393 250.116L153.745 250.86L153.654 249.8L163.557 248.947L165.244 268.531L155.34 269.384L155.249 268.324L163.897 267.579ZM158.777 273.388L163.946 269.458L164.035 270.49L158.882 274.615L158.777 273.388Z" fill="white"></path><path d="M136.26 268.533L136.331 267.471L141.918 267.845L143.16 249.295L144.417 249.379L143.175 267.929L148.763 268.303L148.692 269.365L136.26 268.533Z" fill="white"></path><path d="M125.081 245.846C126.833 246.304 128.307 247.123 129.503 248.304C130.695 249.503 131.494 250.947 131.901 252.636C132.309 254.325 132.269 256.099 131.783 257.959C131.292 259.837 130.458 261.404 129.281 262.659C128.099 263.932 126.697 264.791 125.076 265.235C123.45 265.698 121.762 265.7 120.01 265.242C118.258 264.784 116.786 263.955 115.595 262.756C114.399 261.575 113.597 260.14 113.19 258.452C112.778 256.781 112.817 255.007 113.308 253.128C113.794 251.268 114.629 249.702 115.81 248.429C116.992 247.155 118.396 246.288 120.022 245.825C121.643 245.381 123.329 245.388 125.081 245.846ZM124.798 246.929C123.299 246.537 121.852 246.535 120.458 246.923C119.064 247.311 117.854 248.066 116.828 249.187C115.783 250.303 115.035 251.728 114.581 253.461C114.123 255.213 114.076 256.831 114.441 258.316C114.787 259.795 115.473 261.046 116.499 262.066C117.525 263.087 118.787 263.793 120.286 264.185C121.785 264.577 123.232 264.579 124.626 264.191C126.02 263.803 127.239 263.051 128.283 261.935C129.328 260.819 130.079 259.385 130.537 257.633C130.99 255.9 131.035 254.29 130.67 252.806C130.306 251.322 129.611 250.069 128.585 249.048C127.559 248.028 126.297 247.321 124.798 246.929Z" fill="white"></path><path d="M98.2652 256.748C95.301 255.247 93.4117 253.317 92.5973 250.958C91.7662 248.592 92.0506 246.026 93.4506 243.262C94.8505 240.497 96.7461 238.758 99.1373 238.044C101.512 237.322 104.181 237.711 107.145 239.212L112.066 241.704L103.186 259.24L98.2652 256.748ZM106.665 240.161C104.017 238.82 101.656 238.483 99.5824 239.148C97.5003 239.83 95.8393 241.396 94.5996 243.844C93.3515 246.308 93.0686 248.582 93.7508 250.664C94.433 252.746 96.0981 254.458 98.7459 255.798L102.543 257.721L110.462 242.084L106.665 240.161Z" fill="white"></path><path d="M87.9607 226.423C89.3666 227.564 90.3701 228.92 90.9713 230.489C91.5607 232.074 91.6919 233.719 91.365 235.425C91.0382 237.131 90.2689 238.73 89.0573 240.223C87.8339 241.731 86.4269 242.812 84.8364 243.469C83.2341 244.14 81.603 244.343 79.9431 244.077C78.2715 243.826 76.7327 243.13 75.3268 241.989C73.9209 240.848 72.9233 239.486 72.3339 237.901C71.7327 236.332 71.5956 234.694 71.9225 232.988C72.2376 231.296 73.0068 229.697 74.2302 228.189C75.4419 226.696 76.8488 225.615 78.4511 224.944C80.0535 224.273 81.6904 224.063 83.3621 224.314C85.0219 224.579 86.5548 225.282 87.9607 226.423ZM87.2549 227.293C86.0519 226.316 84.7355 225.717 83.3056 225.494C81.8758 225.271 80.462 225.458 79.0643 226.054C77.6521 226.639 76.3813 227.627 75.252 229.019C74.111 230.425 73.3996 231.879 73.1179 233.381C72.8217 234.872 72.9298 236.294 73.4421 237.647C73.9544 239 74.812 240.165 76.015 241.142C77.218 242.118 78.5344 242.718 79.9642 242.94C81.3941 243.163 82.8151 242.982 84.2273 242.398C85.6395 241.813 86.9162 240.817 88.0572 239.412C89.1865 238.02 89.892 236.573 90.1737 235.071C90.4554 233.569 90.3401 232.141 89.8278 230.787C89.3155 229.434 88.4579 228.269 87.2549 227.293Z" fill="white"></path><path d="M45.1727 204.001L61.4763 193.793L62.145 194.861L48.0721 203.672L66.0679 201.126L66.6029 201.98L56.4678 217.081L70.5407 208.269L71.2094 209.337L54.9057 219.545L54.1925 218.406L64.9352 202.43L45.8711 205.117L45.1727 204.001Z" fill="white"></path><path d="M41.5815 196.011L59.6653 188.308L60.159 189.467L42.0752 197.17L41.5815 196.011Z" fill="white"></path><path d="M53.3583 168.027L53.6847 169.244L39.6887 184.941L56.6726 180.387L56.999 181.604L38.0408 186.687L37.7145 185.47L51.6563 169.788L34.7265 174.328L34.4001 173.111L53.3583 168.027Z" fill="white"></path><path d="M37.7803 152.125C39.5106 151.985 40.9034 152.414 41.9586 153.415C42.9952 154.417 43.5997 155.978 43.7722 158.099L44.1126 162.286L52.7082 161.587L52.8103 162.842L33.219 164.435L32.7765 158.993C32.601 156.835 32.9725 155.185 33.8909 154.043C34.7908 152.902 36.0873 152.263 37.7803 152.125ZM42.6559 158.19C42.376 154.748 40.7849 153.145 37.8825 153.381C36.4498 153.498 35.3947 153.995 34.7171 154.875C34.0208 155.755 33.7461 157.098 33.8928 158.903L34.2332 163.089L42.9963 162.376L42.6559 158.19Z" fill="white"></path><path d="M47.2691 132.554C47.135 133.364 46.7352 134.007 46.0698 134.484C45.4044 134.96 44.6666 135.131 43.8563 134.997C43.0275 134.86 42.375 134.459 41.8986 133.793C41.4038 133.125 41.2234 132.385 41.3575 131.575C41.4947 130.746 41.9052 130.095 42.589 129.622C43.2544 129.146 44.0015 128.976 44.8302 129.113C45.6405 129.247 46.2839 129.647 46.7603 130.312C47.2367 130.978 47.4063 131.725 47.2691 132.554Z" fill="white"></path><path d="M48.6553 90.2562L66.0807 98.4035L65.547 99.5449L50.5059 92.5124L62.4162 106.241L61.9893 107.154L43.8054 106.843L58.8465 113.876L58.3129 115.017L40.8875 106.87L41.4567 105.652L60.7062 105.998L48.0979 91.4483L48.6553 90.2562Z" fill="white"></path><path d="M54.5094 83.1549L61.1565 87.9634L65.7517 81.6113L66.6138 82.2349L62.0186 88.5871L68.7111 93.4284L73.7986 86.3957L74.6607 87.0193L68.8346 95.0729L52.9089 83.5521L58.7349 75.4985L59.597 76.1221L54.5094 83.1549ZM53.4586 75.4831L53.0551 81.9646L52.2157 81.3574L52.4605 74.761L53.4586 75.4831Z" fill="white"></path><path d="M71.8477 61.6113L72.6048 62.3589L68.6705 66.3439L81.9009 79.406L81.0157 80.3027L67.7852 67.2406L63.8509 71.2256L63.0937 70.4781L71.8477 61.6113Z" fill="white"></path><path d="M96.3255 67.9752C94.8341 69.0019 93.2505 69.5821 91.5749 69.7157C89.8887 69.8341 88.2734 69.4957 86.7289 68.7006C85.1845 67.9055 83.8671 66.7161 82.7769 65.1324C81.6761 63.5333 81.0353 61.8782 80.8545 60.1671C80.6631 58.4405 80.9289 56.8185 81.6519 55.301C82.3643 53.7681 83.4663 52.4884 84.9577 51.4617C86.4492 50.435 88.038 49.8625 89.7242 49.7441C91.3998 49.6105 93.0098 49.9412 94.5543 50.7362C96.0881 51.516 97.4055 52.7053 98.5063 54.3044C99.5965 55.8881 100.237 57.5432 100.429 59.2698C100.62 60.9963 100.36 62.626 99.6472 64.1589C98.9242 65.6764 97.8169 66.9485 96.3255 67.9752ZM95.6904 67.0526C96.9666 66.1741 97.9134 65.0804 98.5308 63.7716C99.1481 62.4628 99.3679 61.0538 99.1901 59.5445C99.0277 58.0247 98.4384 56.5267 97.4223 55.0506C96.3956 53.5592 95.2014 52.4663 93.8396 51.7721C92.4933 51.0672 91.0986 50.7696 89.6556 50.8791C88.2127 50.9886 86.8531 51.4826 85.5769 52.3611C84.3007 53.2397 83.3539 54.3333 82.7366 55.6421C82.1192 56.951 81.8917 58.3653 82.0542 59.8851C82.2166 61.405 82.8112 62.9106 83.8379 64.4021C84.854 65.8781 86.0429 66.9633 87.4046 67.6575C88.7664 68.3518 90.1687 68.6442 91.6117 68.5347C93.0547 68.4251 94.4142 67.9311 95.6904 67.0526Z" fill="white"></path><path d="M105.597 40.5527C108.67 39.2898 111.365 39.1207 113.683 40.0454C116.017 40.9629 117.773 42.8548 118.951 45.7209C120.129 48.587 120.207 51.1584 119.185 53.4351C118.18 55.7046 116.141 57.4708 113.067 58.7336L107.965 60.8301L100.495 42.6491L105.597 40.5527ZM112.663 57.7495C115.408 56.6214 117.207 55.0551 118.058 53.0504C118.902 51.0285 118.803 48.7485 117.76 46.2104C116.71 43.6551 115.174 41.9553 113.152 41.1111C111.13 40.2669 108.746 40.4088 106.001 41.5368L102.065 43.1544L108.726 59.3671L112.663 57.7495Z" fill="white"></path><path d="M135.285 52.5689C133.502 52.8874 131.82 52.7613 130.239 52.1906C128.655 51.6015 127.324 50.6257 126.246 49.2635C125.168 47.9012 124.46 46.2737 124.122 44.381C123.78 42.4699 123.881 40.6979 124.424 39.065C124.963 37.4137 125.875 36.0466 127.161 34.9635C128.443 33.8621 129.975 33.1521 131.758 32.8336C133.54 32.515 135.223 32.6503 136.808 33.2394C138.389 33.8102 139.718 34.7767 140.796 36.139C141.871 37.4829 142.579 39.1104 142.92 41.0215C143.258 42.9141 143.158 44.6861 142.619 46.3374C142.079 47.9887 141.169 49.3651 139.887 50.4665C138.601 51.5495 137.067 52.2503 135.285 52.5689ZM135.088 51.4663C136.613 51.1938 137.927 50.5892 139.03 49.6525C140.133 48.7158 140.915 47.5236 141.377 46.0757C141.858 44.6246 141.94 43.017 141.625 41.253C141.306 39.4706 140.67 37.9819 139.717 36.7869C138.783 35.5887 137.636 34.7412 136.276 34.2446C134.917 33.748 133.475 33.636 131.95 33.9085C130.425 34.1811 129.11 34.7857 128.007 35.7224C126.904 36.6591 126.113 37.853 125.632 39.3041C125.152 40.7552 125.071 42.372 125.39 44.1544C125.705 45.9184 126.339 47.3979 127.292 48.5929C128.246 49.7879 129.402 50.6337 130.761 51.1303C132.12 51.6269 133.562 51.7389 135.088 51.4663Z" fill="white"></path><path d="M180.218 34.8326L177.291 53.8446L176.046 53.6529L178.572 37.2422L168.74 52.5283L167.743 52.375L162.936 34.8354L160.41 51.2461L159.165 51.0544L162.091 32.0423L163.419 32.2468L168.493 50.8189L178.917 34.6323L180.218 34.8326Z" fill="white"></path><path d="M188.613 37.3358L182.626 56.0579L181.426 55.6742L187.413 36.952L188.613 37.3358Z" fill="white"></path><path d="M202.099 64.5367L200.965 63.9884L198.229 43.1368L190.578 58.969L189.443 58.4208L197.984 40.7482L199.118 41.2964L201.878 62.0977L209.505 46.3158L210.64 46.8641L202.099 64.5367Z" fill="white"></path><path d="M224.316 63.1364C223.292 64.538 222.056 65.3114 220.609 65.4564C219.173 65.5863 217.596 65.0235 215.878 63.768L212.487 61.2901L207.399 68.2533L206.382 67.51L217.978 51.6393L222.387 54.8606C224.135 56.1381 225.142 57.4976 225.406 58.9392C225.681 60.3658 225.318 61.7648 224.316 63.1364ZM216.539 62.8637C219.327 64.9011 221.58 64.7442 223.298 62.393C224.146 61.2325 224.459 60.1085 224.236 59.021C224.025 57.9185 223.188 56.8331 221.726 55.7649L218.335 53.287L213.148 60.3858L216.539 62.8637Z" fill="white"></path><path d="M232.93 83.1084C232.404 82.4773 232.178 81.7543 232.253 80.9393C232.327 80.1243 232.68 79.454 233.311 78.9283C233.956 78.3906 234.686 78.1589 235.501 78.2331C236.33 78.2954 237.008 78.642 237.534 79.2731C238.071 79.9184 238.296 80.6546 238.207 81.4815C238.133 82.2965 237.773 82.9729 237.128 83.5105C236.497 84.0362 235.774 84.262 234.959 84.1878C234.144 84.1136 233.468 83.7538 232.93 83.1084Z" fill="white"></path><path d="M264.041 111.798L246.487 119.664L245.972 118.514L261.124 111.724L242.949 111.769L242.537 110.849L254.655 97.2876L239.503 104.077L238.987 102.928L256.542 95.0614L257.091 96.2879L244.251 110.633L263.503 110.597L264.041 111.798Z" fill="white"></path><path d="M265.591 120.87L257.608 122.759L259.413 130.388L258.378 130.633L256.572 123.004L248.534 124.906L250.533 133.353L249.498 133.598L247.209 123.925L266.336 119.398L268.625 129.071L267.59 129.316L265.591 120.87ZM272.085 125.088L267.442 120.547L268.451 120.308L273.284 124.804L272.085 125.088Z" fill="white"></path><path d="M270.568 148.072L269.508 148.157L269.062 142.574L250.529 144.053L250.429 142.797L268.962 141.318L268.517 135.736L269.577 135.651L270.568 148.072Z" fill="white"></path><path d="M249.756 162.442C249.953 160.642 250.549 159.064 251.543 157.708C252.555 156.355 253.867 155.353 255.478 154.704C257.089 154.054 258.85 153.834 260.761 154.044C262.691 154.256 264.363 154.852 265.776 155.833C267.208 156.817 268.262 158.078 268.938 159.617C269.633 161.158 269.882 162.828 269.684 164.628C269.487 166.428 268.882 168.005 267.87 169.358C266.876 170.714 265.573 171.717 263.962 172.366C262.37 173.018 260.609 173.238 258.679 173.026C256.768 172.816 255.096 172.22 253.664 171.236C252.232 170.253 251.169 168.991 250.474 167.45C249.798 165.911 249.558 164.242 249.756 162.442ZM250.869 162.564C250.7 164.104 250.909 165.535 251.497 166.858C252.084 168.181 253.007 169.268 254.266 170.119C255.522 170.99 257.041 171.522 258.822 171.718C260.622 171.915 262.23 171.725 263.645 171.148C265.059 170.59 266.195 169.729 267.055 168.565C267.915 167.401 268.43 166.049 268.599 164.509C268.768 162.969 268.559 161.538 267.971 160.215C267.384 158.892 266.462 157.796 265.206 156.926C263.949 156.056 262.421 155.522 260.621 155.324C258.84 155.129 257.241 155.32 255.826 155.897C254.41 156.474 253.273 157.344 252.413 158.508C251.553 159.672 251.038 161.024 250.869 162.564Z" fill="white"></path><path d="M264.455 187.38C263.402 190.531 261.769 192.682 259.555 193.832C257.335 194.999 254.755 195.092 251.816 194.111C248.877 193.129 246.879 191.508 245.824 189.247C244.763 187.003 244.758 184.305 245.811 181.154L247.558 175.922L266.202 182.148L264.455 187.38ZM246.82 181.491C245.88 184.306 245.89 186.691 246.851 188.645C247.83 190.605 249.621 192.02 252.224 192.889C254.844 193.764 257.135 193.712 259.095 192.734C261.055 191.755 262.505 189.858 263.445 187.043L264.793 183.006L248.168 177.454L246.82 181.491Z" fill="white"></path><path d="M235.959 202C236.883 200.442 238.077 199.252 239.542 198.428C241.023 197.613 242.632 197.243 244.367 197.318C246.103 197.392 247.797 197.92 249.451 198.901C251.121 199.891 252.397 201.125 253.278 202.603C254.176 204.09 254.614 205.674 254.594 207.355C254.59 209.045 254.126 210.669 253.202 212.226C252.279 213.784 251.076 214.969 249.595 215.784C248.13 216.608 246.529 216.982 244.794 216.908C243.074 216.843 241.38 216.315 239.71 215.325C238.056 214.344 236.781 213.11 235.883 211.623C234.986 210.136 234.539 208.547 234.543 206.857C234.563 205.176 235.035 203.557 235.959 202ZM236.922 202.571C236.132 203.903 235.731 205.293 235.719 206.74C235.707 208.187 236.098 209.559 236.893 210.855C237.677 212.166 238.84 213.279 240.381 214.193C241.939 215.117 243.481 215.608 245.009 215.668C246.526 215.743 247.917 215.429 249.181 214.725C250.446 214.02 251.473 213.002 252.263 211.669C253.053 210.337 253.455 208.947 253.466 207.5C253.478 206.053 253.092 204.673 252.307 203.361C251.523 202.05 250.352 200.932 248.794 200.008C247.253 199.094 245.719 198.607 244.191 198.548C242.664 198.489 241.268 198.811 240.004 199.515C238.74 200.22 237.713 201.238 236.922 202.571Z" fill="white"></path><path d="M220.022 247.602L207.543 232.963L208.502 232.145L219.273 244.781L214.127 227.35L214.895 226.696L231.313 234.519L220.541 221.883L221.5 221.065L233.979 235.704L232.956 236.576L215.583 228.28L221.023 246.748L220.022 247.602Z" fill="white"></path><path d="M212.641 252.321L202.381 235.555L203.456 234.897L213.716 251.663L212.641 252.321Z" fill="white"></path><path d="M197.875 245.528C198.696 245.543 199.391 245.845 199.959 246.433C200.528 247.022 200.805 247.727 200.79 248.548C200.776 249.388 200.474 250.092 199.885 250.661C199.296 251.248 198.591 251.534 197.77 251.52C196.93 251.505 196.226 251.194 195.658 250.586C195.089 249.998 194.813 249.283 194.827 248.443C194.842 247.622 195.143 246.927 195.732 246.359C196.321 245.791 197.035 245.514 197.875 245.528Z" fill="white"></path><circle cx="150.5" cy="150.5" r="88.5" fill="url(#paint1_linear_23_123)"></circle><path d="M150 106V194M170 122H140C136.287 122 132.726 123.475 130.1 126.101C127.475 128.726 126 132.287 126 136C126 139.713 127.475 143.274 130.1 145.899C132.726 148.525 136.287 150 140 150H160C163.713 150 167.274 151.475 169.899 154.101C172.525 156.726 174 160.287 174 164C174 167.713 172.525 171.274 169.899 173.899C167.274 176.525 163.713 178 160 178H126" stroke="black" stroke-width="2" stroke-linecap="round" stroke-linejoin="round"></path><defs><linearGradient id="paint0_linear_23_123" x1="320.5" y1="250" x2="-0.000122501" y2="-19" gradientUnits="userSpaceOnUse"><stop stop-color="#343434"></stop><stop offset="1"></stop></linearGradient><linearGradient id="paint1_linear_23_123" x1="239" y1="248.115" x2="61.9999" y2="50.8272" gradientUnits="userSpaceOnUse"><stop stop-color="#EBB841"></stop><stop offset="1" stop-color="#C28A07"></stop></linearGradient></defs></svg>